<svg xmlns="http://www.w3.org/2000/svg" width="25" height="24" viewBox="0 0 25 24" >
<path d="M11.25 24H3.25C2.69772 24 2.25 23.5523 2.25 23V12H11.25V24ZM11.25 6H1.25C0.697715 6 0.25 6.44772 0.25 7V9C0.25 9.55229 0.697715 10 1.25 10H11.25V6ZM13.25 24H21.25C21.8023 24 22.25 23.5523 22.25 23V12H13.25V24ZM13.25 6V10H23.25C23.8023 10 24.25 9.55229 24.25 9V7C24.25 6.44772 23.8023 6 23.25 6H13.25ZM17.619 0C14.672 0 12.948 3.477 12.25 5H17.595C21.088 5 21.125 0 17.619 0ZM16.823 3.621H14.78C15.519 2.5 16.219 1.655 17.122 1.655C18.294 1.655 18.35 3.621 16.823 3.621ZM6.905 5H12.25C11.552 3.477 9.828 0 6.881 0C3.375 0 3.412 5 6.905 5ZM7.378 1.655C8.281 1.655 8.981 2.5 9.72 3.621H7.677C6.15 3.621 6.206 1.655 7.378 1.655Z" />
</svg>