<svg  width="28" height="24" viewBox="0 0 28 24" >
<path d="M13.9974 0C13.9974 0 5.7494 7.12 1.14006 10.976C0.869396 11.2213 0.664062 11.5787 0.664062 12C0.664062 12.7373 1.26006 13.3333 1.9974 13.3333H4.66406V22.6667C4.66406 23.404 5.26006 24 5.9974 24H9.9974C10.7347 24 11.3307 23.4027 11.3307 22.6667V17.3333H16.6641V22.6667C16.6641 23.4027 17.2601 24 17.9974 24H21.9974C22.7347 24 23.3307 23.404 23.3307 22.6667V13.3333H25.9974C26.7347 13.3333 27.3307 12.7373 27.3307 12C27.3307 11.5787 27.1254 11.2213 26.8201 10.976C22.2427 7.12 13.9974 0 13.9974 0Z"/>
</svg>