<svg width="23" height="24" viewBox="0 0 23 24" >
<path d="M11.3681 19.1297C10.9541 19.6078 10.2139 19.6078 9.75609 19.1297L6.6392 16.1297C6.18628 15.7313 6.18628 15.0188 6.6392 14.5781C7.097 14.1422 7.83726 14.1422 8.25122 14.5781L10.584 16.7859L15.2106 12.3281C15.6684 11.8922 16.4087 11.8922 16.8226 12.3281C17.3194 12.7688 17.3194 13.4813 16.8226 13.8797L11.3681 19.1297ZM7.07752 0C7.72524 0 8.24635 0.503906 8.24635 1.125V3H15.2593V1.125C15.2593 0.503906 15.7804 0 16.4282 0C17.0759 0 17.597 0.503906 17.597 1.125V3H19.545C21.2642 3 22.6619 4.34297 22.6619 6V21C22.6619 22.6547 21.2642 24 19.545 24H3.96063C2.23904 24 0.84375 22.6547 0.84375 21V6C0.84375 4.34297 2.23904 3 3.96063 3H5.90868V1.125C5.90868 0.503906 6.42979 0 7.07752 0ZM20.3243 9H3.18141V21C3.18141 21.4125 3.53011 21.75 3.96063 21.75H19.545C19.9736 21.75 20.3243 21.4125 20.3243 21V9Z" />
</svg>