<svg xmlns="http://www.w3.org/2000/svg" width="24" height="25" viewBox="0 0 24 25" >
<path d="M12 12.5C13.8186 12.5 15.5628 11.8679 16.8487 10.7426C18.1347 9.61742 18.8571 8.0913 18.8571 6.5C18.8571 4.9087 18.1347 3.38258 16.8487 2.25736C15.5628 1.13214 13.8186 0.5 12 0.5C10.1814 0.5 8.43723 1.13214 7.15127 2.25736C5.8653 3.38258 5.14286 4.9087 5.14286 6.5C5.14286 8.0913 5.8653 9.61742 7.15127 10.7426C8.43723 11.8679 10.1814 12.5 12 12.5ZM9.55179 14.75C4.275 14.75 0 18.4906 0 23.1078C0 23.8766 0.7125 24.5 1.59107 24.5H22.4089C23.2875 24.5 24 23.8766 24 23.1078C24 18.4906 19.725 14.75 14.4482 14.75H9.55179Z" />
</svg>